# xmcd
#
# Track frame offsets:
#	150
#	21514
#	49044
#	66009
#	81625
#	103240
#	119938
#	138179
#	157032
#	174194
#	192944
#
# Disc length: 2823 seconds
#
# Revision: 1
# Processed by: cddbd v1.5.2PL0 Copyright (c) Steve Scherf et al.
# Submitted via: audiograbber 1.83.01
#
DISCID=a00b050b
DTITLE=Dieter Kaspari - De Pau erav
DYEAR=2008
DGENRE=Other
TTITLE0=De Pau erav
TTITLE1=Du bes wat ich bruuch
TTITLE2=E Leddche för dich
TTITLE3=Vür fahre met de Tramm
TTITLE4=Et es kooet, maach op
TTITLE5=Ich dröim van dich
TTITLE6=Dröimer
TTITLE7=68-er Blues
TTITLE8=Treck dich aa
TTITLE9=Mi Veddel
TTITLE10=Thieke Blues 3 (Bonus Track)
EXTD=(Heinz) Dieter Kaspari and Charly Büchel
EXTT0=
EXTT1=
EXTT2=
EXTT3=
EXTT4=
EXTT5=
EXTT6=
EXTT7=
EXTT8=
EXTT9=
EXTT10=
PLAYORDER=
